# Blender v2.79 (sub 0) OBJ File: 'lowpoly_person.blend'
# www.blender.org
mtllib test.mtl
v 0.808859 5.009037 -0.581992
v 0.851034 4.870785 1.350143
v 0.851224 7.061775 -0.501080
v 0.851223 7.061775 1.201367
v 0.990645 4.827251 0.226866
v 1.006619 6.034812 -0.656475
v -0.009882 4.409748 1.692467
v 1.006618 6.034812 1.356761
v 1.042532 7.253083 0.350144
v 1.423573 6.034812 0.350143
v 2.082355 2.867047 -1.086612
v 2.010542 2.867047 0.418052
v 1.049556 3.838557 0.131765
v 0.856959 3.950930 -0.868235
v 1.705112 -1.385329 -1.039760
v 1.647108 -1.385329 0.175571
v 2.010542 1.619600 0.418052
v 2.082355 1.619601 -1.086612
v 2.082355 1.330280 -1.086612
v 2.010542 1.330280 0.330501
v 0.195447 4.990811 -0.719854
v 0.198143 4.521149 1.609751
v 0.205683 7.206857 -0.646162
v 0.205683 7.206857 1.346448
v 0.243232 6.034812 -0.904642
v 0.243231 6.034812 1.672967
v 0.251909 7.580569 0.350143
v 0.239372 4.429495 0.320355
v 0.364788 2.867047 -1.257052
v 0.347436 2.867047 0.418052
v 0.207069 3.982852 -0.986265
v 0.253607 3.646195 0.131765
v 0.334231 -1.385329 -1.092276
v 0.320215 -1.385329 0.260720
v 0.364788 1.619601 -1.257052
v 0.347436 1.619601 0.418052
v 0.364788 1.330280 -1.257052
v 0.347436 1.330280 0.330501
v 4.457500 2.780699 -0.868863
v 4.395629 2.780699 0.427496
v 4.395629 1.705948 0.427496
v 4.457500 1.705949 -0.868863
v 6.739417 2.669898 -0.626001
v 6.690302 2.669898 0.403062
v 6.690302 1.816750 0.403062
v 6.739417 1.816750 -0.626001
v 7.214788 2.758674 -0.710638
v 7.155452 2.758674 0.532588
v 7.155452 1.727974 0.532588
v 7.214788 1.727974 -0.710638
v 7.619733 2.644191 -0.545972
v 7.573579 2.644191 0.421075
v 7.573579 1.842457 0.421075
v 7.619733 1.842458 -0.545972
v 2.751584 1.567530 -1.125497
v 2.673775 1.567529 0.504783
v 2.673775 2.919118 0.504783
v 2.751584 2.919118 -1.125497
v 4.948460 2.853435 0.533880
v 5.018706 2.853435 -0.937948
v 5.018706 1.633213 -0.937948
v 4.948460 1.633212 0.533880
v 0.132648 -2.796920 -1.008177
v 0.120452 -2.796920 0.169204
v 1.796713 -3.101909 -0.980747
v 1.743523 -3.101909 0.133719
v 0.443257 -3.101909 -1.028905
v 0.430405 -3.101909 0.211801
v 1.796713 -5.590634 -0.980747
v 1.743523 -5.590634 0.133719
v 0.443257 -5.590634 -1.028905
v 0.430405 -5.590634 0.211801
v 1.796713 -8.417307 -0.980747
v 1.743523 -8.417307 0.133719
v 0.443257 -8.417307 -1.028905
v 0.430405 -8.417307 0.211801
v 1.859455 -9.077078 -1.031857
v 1.801451 -9.077078 0.183474
v 0.383504 -9.077078 -1.084373
v 0.369488 -9.077078 0.268623
v 1.703665 -8.531961 2.738643
v 0.769392 -8.531961 2.794198
v 1.703665 -8.962423 2.738643
v 0.769392 -8.962423 2.794198
v 1.884846 -9.080702 1.453192
v 0.437151 -9.080702 1.539277
v 1.884846 -8.413683 1.453192
v 0.437151 -8.413683 1.539277
v 0.340172 -6.177989 0.295970
v 1.829329 -6.177989 0.207419
v 1.889650 -6.177989 -1.056454
v 0.354747 -6.177989 -1.111067
v 1.889199 -3.938658 -1.056087
v 0.355177 -3.938658 -1.110669
v 0.340609 -3.938658 0.295561
v 1.828913 -3.938658 0.207062
v -0.808858 5.009037 -0.581992
v -0.851033 4.870785 1.350143
v -0.851223 7.061775 -0.501080
v -0.851222 7.061775 1.201367
v -0.990645 4.827251 0.226866
v 0.000000 4.985004 -0.763779
v -1.006618 6.034812 -0.656475
v 0.009883 4.409748 1.692467
v -1.006618 6.034812 1.356761
v -1.042531 7.253083 0.350144
v 0.000000 7.253083 -0.692388
v 0.000000 7.253083 1.392674
v 0.000000 6.034812 -0.983713
v 0.000000 6.034812 1.773716
v -1.423573 6.034812 0.350143
v 0.000000 7.684913 0.350143
v 0.000000 4.302762 0.350143
v 0.000000 2.867047 -1.311357
v -2.082355 2.867047 -1.086612
v -2.010541 2.867047 0.418052
v 0.000000 2.867047 0.330501
v 0.000000 3.584904 0.131765
v -1.049556 3.838557 0.131765
v 0.000000 3.993023 -1.023872
v -0.856959 3.950930 -0.868235
v 0.000000 -1.385329 -1.136139
v -1.705112 -1.385329 -1.039760
v -1.647107 -1.385329 0.175571
v 0.000000 -1.385329 0.260720
v 0.000000 1.619601 -1.311357
v 0.000000 1.619601 0.330501
v -2.010541 1.619600 0.418052
v -2.082355 1.619601 -1.086612
v 0.000000 1.330280 -1.311357
v 0.000000 1.330280 0.330501
v -2.082355 1.330280 -1.086612
v -2.010541 1.330280 0.330501
v -0.195446 4.990811 -0.719854
v -0.198142 4.521149 1.609751
v -0.205683 7.206857 -0.646162
v -0.205682 7.206857 1.346448
v -0.243231 6.034812 -0.904642
v -0.243231 6.034812 1.672967
v -0.251909 7.580569 0.350143
v -0.239371 4.429495 0.320355
v -0.364788 2.867047 -1.257052
v -0.347435 2.867047 0.418052
v -0.207069 3.982852 -0.986265
v -0.253606 3.646195 0.131765
v -0.334230 -1.385329 -1.092276
v -0.320214 -1.385329 0.260720
v -0.364788 1.619601 -1.257052
v -0.347435 1.619601 0.418052
v -0.364788 1.330280 -1.257052
v -0.347435 1.330280 0.330501
v -4.457500 2.780699 -0.868863
v -4.395628 2.780699 0.427496
v -4.395628 1.705948 0.427496
v -4.457500 1.705949 -0.868863
v -6.739416 2.669898 -0.626001
v -6.690301 2.669898 0.403062
v -6.690301 1.816750 0.403062
v -6.739416 1.816750 -0.626001
v -7.214787 2.758674 -0.710638
v -7.155451 2.758674 0.532588
v -7.155451 1.727974 0.532588
v -7.214787 1.727974 -0.710638
v -7.619732 2.644191 -0.545972
v -7.573578 2.644191 0.421075
v -7.573578 1.842457 0.421075
v -7.619732 1.842458 -0.545972
v -2.751584 1.567530 -1.125497
v -2.673775 1.567529 0.504783
v -2.673775 2.919118 0.504783
v -2.751584 2.919118 -1.125497
v -4.948459 2.853435 0.533880
v -5.018705 2.853435 -0.937948
v -5.018705 1.633213 -0.937948
v -4.948459 1.633212 0.533880
v -0.132648 -2.796920 -1.008177
v 0.000000 -2.796920 -0.896227
v -0.120451 -2.796920 0.169204
v 0.000000 -2.796920 0.028225
v -1.796713 -3.101909 -0.980747
v -1.743522 -3.101909 0.133719
v -0.443257 -3.101909 -1.028905
v -0.430404 -3.101909 0.211801
v -1.796713 -5.590634 -0.980747
v -1.743522 -5.590634 0.133719
v -0.443257 -5.590634 -1.028905
v -0.430404 -5.590634 0.211801
v -1.796713 -8.417307 -0.980747
v -1.743522 -8.417307 0.133719
v -0.443257 -8.417307 -1.028905
v -0.430404 -8.417307 0.211801
v -1.859454 -9.077078 -1.031857
v -1.801450 -9.077078 0.183474
v -0.383504 -9.077078 -1.084373
v -0.369488 -9.077078 0.268623
v -1.703665 -8.531961 2.738643
v -0.769391 -8.531961 2.794198
v -1.703665 -8.962423 2.738643
v -0.769391 -8.962423 2.794198
v -1.884846 -9.080702 1.453192
v -0.437151 -9.080702 1.539277
v -1.884846 -8.413683 1.453192
v -0.437151 -8.413683 1.539277
v -0.340171 -6.177989 0.295970
v -1.829329 -6.177989 0.207419
v -1.889650 -6.177989 -1.056454
v -0.354747 -6.177989 -1.111067
v -1.889199 -3.938658 -1.056087
v -0.355176 -3.938658 -1.110669
v -0.340609 -3.938658 0.295561
v -1.828912 -3.938658 0.207062
vn 0.9147 0.2410 0.3243
vn 0.2832 0.2192 -0.9337
vn 0.2674 -0.1887 -0.9449
vn 0.3866 -0.0492 0.9210
vn 0.3246 0.2732 0.9055
vn 0.9365 -0.2461 0.2498
vn 0.9117 -0.2503 -0.3257
vn 0.9147 0.2410 -0.3243
vn 0.3244 0.8772 0.3539
vn 0.3244 0.8772 -0.3539
vn -0.1671 0.2944 0.9410
vn 0.4832 -0.8723 0.0752
vn -0.0000 -0.0257 0.9997
vn 0.6849 0.7286 -0.0003
vn 0.1197 0.2866 -0.9505
vn 0.1945 0.2587 -0.9462
vn 0.9783 0.0863 -0.1885
vn 0.1557 -0.2571 0.9538
vn -0.3035 -0.0874 0.9488
vn 0.0719 -0.0442 -0.9964
vn 0.9895 -0.1359 0.0488
vn 0.0803 -0.9968 0.0038
vn 0.0987 0.0000 -0.9951
vn -0.2444 0.0000 0.9697
vn 0.9988 -0.0074 0.0491
vn -0.1236 -0.1485 0.9812
vn -0.0000 -0.2896 0.9571
vn 0.1472 0.0000 -0.9891
vn -0.0000 0.0000 1.0000
vn 0.1388 -0.0627 -0.9883
vn 0.9974 0.0549 0.0476
vn 0.1174 -0.1523 0.9813
vn 0.1948 0.2508 -0.9482
vn 0.1580 0.2491 -0.9555
vn 0.0284 -0.0434 0.9987
vn 0.4847 -0.8705 0.0851
vn -0.0233 0.2981 0.9543
vn 0.3252 0.8918 -0.3145
vn 0.3252 0.8918 0.3145
vn 0.3241 0.2296 0.9177
vn 0.3873 -0.0530 0.9204
vn 0.2687 -0.1510 -0.9513
vn 0.2825 0.2013 -0.9379
vn 0.1052 0.9944 0.0050
vn 0.0803 0.9968 0.0038
vn 0.0448 0.0000 0.9990
vn 0.1488 0.0000 -0.9889
vn -0.1851 -0.9827 -0.0088
vn 0.1052 -0.9944 0.0050
vn 0.0749 0.0000 0.9972
vn 0.1784 0.0000 -0.9840
vn 0.3767 0.0000 -0.9263
vn -0.2683 0.0000 0.9633
vn -0.1753 0.0000 -0.9845
vn -0.1851 0.9827 -0.0088
vn 0.9989 0.0000 0.0477
vn 0.2672 0.9636 0.0128
vn 0.2672 -0.9636 0.0128
vn 0.2577 0.0000 0.9662
vn -0.0580 0.0000 -0.9983
vn -0.1297 0.0000 0.9916
vn -0.0778 0.9970 -0.0037
vn -0.0778 -0.9970 -0.0037
vn -0.1222 0.0000 -0.9925
vn -0.1890 0.0000 0.9820
vn -0.1293 -0.9916 -0.0062
vn -0.1293 0.9916 -0.0062
vn 0.0000 -1.0000 0.0000
vn -0.1435 -0.1027 -0.9843
vn 0.0355 -0.0475 -0.9982
vn 0.0369 -0.0334 -0.9988
vn 0.0617 -0.0227 0.9978
vn -0.1738 -0.0392 0.9840
vn -0.7009 -0.7133 -0.0073
vn -0.1091 -0.0436 -0.9931
vn 0.0593 -0.0351 0.9976
vn 0.0593 -0.0473 0.9971
vn 0.9974 -0.0537 0.0476
vn -0.9985 -0.0538 -0.0103
vn -0.9958 0.0911 -0.0103
vn 0.9981 -0.0398 0.0476
vn -0.9992 -0.0399 -0.0104
vn 0.0355 -0.0352 -0.9987
vn 0.0354 0.0805 -0.9961
vn 0.0055 -0.9957 0.0924
vn 0.9947 0.0909 0.0475
vn 0.0594 0.0000 0.9982
vn 0.9902 0.0000 0.1396
vn 0.0055 0.9957 0.0924
vn -0.9667 -0.0000 0.2559
vn -0.9985 0.0471 0.0286
vn -0.0002 1.0000 -0.0027
vn 0.9954 0.0402 -0.0864
vn -0.0002 -1.0000 -0.0028
vn 0.0352 0.1332 -0.9905
vn -0.9886 0.1504 -0.0102
vn 0.9875 0.1502 0.0471
vn 0.0588 0.1327 0.9894
vn -0.9943 0.1057 -0.0103
vn 0.9933 0.1055 0.0474
vn 0.0591 0.0931 0.9939
vn 0.0354 0.0935 -0.9950
vn -0.9147 0.2410 0.3243
vn -0.2832 0.2192 -0.9337
vn -0.2674 -0.1887 -0.9449
vn -0.3866 -0.0492 0.9210
vn -0.3246 0.2732 0.9055
vn -0.9365 -0.2461 0.2498
vn -0.9117 -0.2503 -0.3257
vn -0.9147 0.2410 -0.3243
vn -0.3244 0.8772 0.3539
vn -0.3244 0.8772 -0.3539
vn 0.1671 0.2944 0.9410
vn -0.4832 -0.8723 0.0752
vn -0.6849 0.7286 -0.0003
vn -0.1197 0.2866 -0.9505
vn -0.1945 0.2587 -0.9462
vn -0.9783 0.0863 -0.1885
vn -0.1557 -0.2571 0.9538
vn 0.3035 -0.0874 0.9488
vn -0.0719 -0.0442 -0.9964
vn -0.9895 -0.1359 0.0488
vn -0.0803 -0.9968 0.0038
vn -0.0987 0.0000 -0.9951
vn 0.2444 0.0000 0.9697
vn -0.9988 -0.0074 0.0491
vn 0.1236 -0.1485 0.9812
vn -0.1472 0.0000 -0.9891
vn -0.1388 -0.0627 -0.9883
vn -0.9974 0.0549 0.0476
vn -0.1174 -0.1523 0.9813
vn -0.1948 0.2508 -0.9482
vn -0.1580 0.2491 -0.9555
vn -0.0284 -0.0434 0.9987
vn -0.4847 -0.8705 0.0851
vn 0.0233 0.2981 0.9543
vn -0.3252 0.8918 -0.3145
vn -0.3252 0.8918 0.3145
vn -0.3241 0.2296 0.9177
vn -0.3873 -0.0530 0.9204
vn -0.2687 -0.1510 -0.9513
vn -0.2825 0.2013 -0.9379
vn -0.1052 0.9944 0.0050
vn -0.0803 0.9968 0.0038
vn -0.0448 0.0000 0.9990
vn -0.1488 0.0000 -0.9889
vn 0.1851 -0.9827 -0.0088
vn -0.1052 -0.9944 0.0050
vn -0.0749 0.0000 0.9972
vn -0.1784 0.0000 -0.9840
vn -0.3767 0.0000 -0.9263
vn 0.2683 0.0000 0.9633
vn 0.1753 0.0000 -0.9845
vn 0.1851 0.9827 -0.0088
vn -0.9989 0.0000 0.0477
vn -0.2672 0.9636 0.0128
vn -0.2672 -0.9636 0.0128
vn -0.2577 0.0000 0.9662
vn 0.0580 0.0000 -0.9983
vn 0.1297 0.0000 0.9916
vn 0.0778 0.9970 -0.0037
vn 0.0778 -0.9970 -0.0037
vn 0.1222 0.0000 -0.9925
vn 0.1890 0.0000 0.9820
vn 0.1293 -0.9916 -0.0062
vn 0.1293 0.9916 -0.0062
vn 0.1435 -0.1027 -0.9843
vn -0.0355 -0.0475 -0.9982
vn -0.0369 -0.0334 -0.9988
vn -0.0617 -0.0227 0.9978
vn 0.1738 -0.0392 0.9840
vn 0.7009 -0.7133 -0.0073
vn 0.1091 -0.0436 -0.9931
vn -0.0593 -0.0351 0.9976
vn -0.0593 -0.0473 0.9971
vn -0.9974 -0.0537 0.0476
vn 0.9985 -0.0538 -0.0103
vn 0.9958 0.0911 -0.0103
vn -0.9981 -0.0398 0.0476
vn 0.9992 -0.0399 -0.0104
vn -0.0355 -0.0352 -0.9987
vn -0.0354 0.0805 -0.9961
vn -0.0055 -0.9957 0.0924
vn -0.9947 0.0909 0.0475
vn -0.0594 0.0000 0.9982
vn -0.9902 0.0000 0.1396
vn -0.0055 0.9957 0.0924
vn 0.9667 0.0000 0.2559
vn 0.9985 0.0471 0.0286
vn 0.0002 1.0000 -0.0027
vn -0.9954 0.0402 -0.0864
vn 0.0002 -1.0000 -0.0028
vn -0.0352 0.1332 -0.9905
vn 0.9886 0.1504 -0.0102
vn -0.9875 0.1502 0.0471
vn -0.0588 0.1327 0.9894
vn 0.9943 0.1057 -0.0103
vn -0.9933 0.1055 0.0474
vn -0.0591 0.0931 0.9939
vn -0.0354 0.0935 -0.9950
usemtl Material
s off
f 10//1 9//1 4//1 8//1
f 23//2 25//2 109//2 107//2
f 25//3 21//3 102//3 109//3
f 22//4 26//4 110//4 7//4
f 26//5 24//5 108//5 110//5
f 5//6 10//6 8//6 2//6
f 1//7 6//7 10//7 5//7
f 6//8 3//8 9//8 10//8
f 27//9 112//9 108//9 24//9
f 23//10 107//10 112//10 27//10
f 32//11 118//11 117//11 30//11
f 28//12 22//12 7//12 113//12
f 38//13 131//13 125//13 34//13
f 14//14 13//14 12//14 11//14
f 31//15 14//15 11//15 29//15
f 21//16 1//16 14//16 31//16
f 1//17 5//17 13//17 14//17
f 28//18 113//18 118//18 32//18
f 34//19 125//19 179//19 64//19
f 37//20 19//20 15//20 33//20
f 19//21 20//21 16//21 15//21
f 56//22 55//22 42//22 41//22
f 29//23 11//23 18//23 35//23
f 30//24 117//24 127//24 36//24
f 18//25 17//25 20//25 19//25
f 35//23 18//23 19//23 37//23
f 36//26 127//26 131//26 38//26
f 17//27 36//27 38//27 20//27
f 126//28 35//28 37//28 130//28
f 12//29 30//29 36//29 17//29
f 114//28 29//28 35//28 126//28
f 130//30 37//30 33//30 122//30
f 15//31 16//31 66//31 65//31
f 5//32 28//32 32//32 13//32
f 102//33 21//33 31//33 120//33
f 120//34 31//34 29//34 114//34
f 20//35 38//35 34//35 16//35
f 5//36 2//36 22//36 28//36
f 13//37 32//37 30//37 12//37
f 3//38 23//38 27//38 9//38
f 9//39 27//39 24//39 4//39
f 8//40 4//40 24//40 26//40
f 2//41 8//41 26//41 22//41
f 6//42 1//42 21//42 25//42
f 3//43 6//43 25//43 23//43
f 60//44 59//44 44//44 43//44
f 58//45 57//45 40//45 39//45
f 57//46 56//46 41//46 40//46
f 55//47 58//47 39//47 42//47
f 45//48 46//48 50//48 49//48
f 62//49 61//49 46//49 45//49
f 59//50 62//50 45//50 44//50
f 61//51 60//51 43//51 46//51
f 50//52 47//52 51//52 54//52
f 44//53 45//53 49//53 48//53
f 46//54 43//54 47//54 50//54
f 43//55 44//55 48//55 47//55
f 51//56 52//56 53//56 54//56
f 47//57 48//57 52//57 51//57
f 49//58 50//58 54//58 53//58
f 48//59 49//59 53//59 52//59
f 18//60 11//60 58//60 55//60
f 12//61 17//61 56//61 57//61
f 11//62 12//62 57//62 58//62
f 17//63 18//63 55//63 56//63
f 42//64 39//64 60//64 61//64
f 40//65 41//65 62//65 59//65
f 41//66 42//66 61//66 62//66
f 39//67 40//67 59//67 60//67
f 63//68 64//68 179//68 177//68
f 122//69 33//69 63//69 177//69
f 94//70 93//70 69//70 71//70
f 33//71 15//71 65//71 67//71
f 16//72 34//72 68//72 66//72
f 34//73 64//73 68//73
f 63//74 67//74 68//74 64//74
f 33//75 67//75 63//75
f 90//76 89//76 76//76 74//76
f 96//77 95//77 72//77 70//77
f 93//78 96//78 70//78 69//78
f 95//79 94//79 71//79 72//79
f 76//80 75//80 79//80 80//80
f 91//81 90//81 74//81 73//81
f 89//82 92//82 75//82 76//82
f 92//83 91//83 73//83 75//83
f 77//68 78//68 80//68 79//68
f 75//84 73//84 77//84 79//84
f 86//85 85//85 83//85 84//85
f 73//86 74//86 78//86 77//86
f 81//87 82//87 84//87 83//87
f 85//88 87//88 81//88 83//88
f 87//89 88//89 82//89 81//89
f 88//90 86//90 84//90 82//90
f 76//91 80//91 86//91 88//91
f 74//92 76//92 88//92 87//92
f 78//93 74//93 87//93 85//93
f 80//94 78//94 85//94 86//94
f 71//95 69//95 91//95 92//95
f 72//96 71//96 92//96 89//96
f 69//97 70//97 90//97 91//97
f 70//98 72//98 89//98 90//98
f 68//99 67//99 94//99 95//99
f 65//100 66//100 96//100 93//100
f 66//101 68//101 95//101 96//101
f 67//102 65//102 93//102 94//102
f 111//103 105//103 100//103 106//103
f 136//104 107//104 109//104 138//104
f 138//105 109//105 102//105 134//105
f 135//106 104//106 110//106 139//106
f 139//107 110//107 108//107 137//107
f 101//108 98//108 105//108 111//108
f 97//109 101//109 111//109 103//109
f 103//110 111//110 106//110 99//110
f 140//111 137//111 108//111 112//111
f 136//112 140//112 112//112 107//112
f 145//113 143//113 117//113 118//113
f 141//114 113//114 104//114 135//114
f 151//13 147//13 125//13 131//13
f 121//115 115//115 116//115 119//115
f 144//116 142//116 115//116 121//116
f 134//117 144//117 121//117 97//117
f 97//118 121//118 119//118 101//118
f 141//119 145//119 118//119 113//119
f 147//120 178//120 179//120 125//120
f 150//121 146//121 123//121 132//121
f 132//122 123//122 124//122 133//122
f 169//123 154//123 155//123 168//123
f 142//124 148//124 129//124 115//124
f 143//125 149//125 127//125 117//125
f 129//126 132//126 133//126 128//126
f 148//124 150//124 132//124 129//124
f 149//127 151//127 131//127 127//127
f 128//27 133//27 151//27 149//27
f 126//128 130//128 150//128 148//128
f 116//29 128//29 149//29 143//29
f 114//128 126//128 148//128 142//128
f 130//129 122//129 146//129 150//129
f 123//130 180//130 181//130 124//130
f 101//131 119//131 145//131 141//131
f 102//132 120//132 144//132 134//132
f 120//133 114//133 142//133 144//133
f 133//134 124//134 147//134 151//134
f 101//135 141//135 135//135 98//135
f 119//136 116//136 143//136 145//136
f 99//137 106//137 140//137 136//137
f 106//138 100//138 137//138 140//138
f 105//139 139//139 137//139 100//139
f 98//140 135//140 139//140 105//140
f 103//141 138//141 134//141 97//141
f 99//142 136//142 138//142 103//142
f 173//143 156//143 157//143 172//143
f 171//144 152//144 153//144 170//144
f 170//145 153//145 154//145 169//145
f 168//146 155//146 152//146 171//146
f 158//147 162//147 163//147 159//147
f 175//148 158//148 159//148 174//148
f 172//149 157//149 158//149 175//149
f 174//150 159//150 156//150 173//150
f 163//151 167//151 164//151 160//151
f 157//152 161//152 162//152 158//152
f 159//153 163//153 160//153 156//153
f 156//154 160//154 161//154 157//154
f 164//155 167//155 166//155 165//155
f 160//156 164//156 165//156 161//156
f 162//157 166//157 167//157 163//157
f 161//158 165//158 166//158 162//158
f 129//159 168//159 171//159 115//159
f 116//160 170//160 169//160 128//160
f 115//161 171//161 170//161 116//161
f 128//162 169//162 168//162 129//162
f 155//163 174//163 173//163 152//163
f 153//164 172//164 175//164 154//164
f 154//165 175//165 174//165 155//165
f 152//166 173//166 172//166 153//166
f 176//68 177//68 179//68 178//68
f 122//167 177//167 176//167 146//167
f 209//168 186//168 184//168 208//168
f 146//169 182//169 180//169 123//169
f 124//170 181//170 183//170 147//170
f 147//171 183//171 178//171
f 176//172 178//172 183//172 182//172
f 146//173 176//173 182//173
f 205//174 189//174 191//174 204//174
f 211//175 185//175 187//175 210//175
f 208//176 184//176 185//176 211//176
f 210//177 187//177 186//177 209//177
f 191//178 195//178 194//178 190//178
f 206//179 188//179 189//179 205//179
f 204//180 191//180 190//180 207//180
f 207//181 190//181 188//181 206//181
f 192//68 194//68 195//68 193//68
f 190//182 194//182 192//182 188//182
f 201//183 199//183 198//183 200//183
f 188//184 192//184 193//184 189//184
f 196//185 198//185 199//185 197//185
f 200//186 198//186 196//186 202//186
f 202//187 196//187 197//187 203//187
f 203//188 197//188 199//188 201//188
f 191//189 203//189 201//189 195//189
f 189//190 202//190 203//190 191//190
f 193//191 200//191 202//191 189//191
f 195//192 201//192 200//192 193//192
f 186//193 207//193 206//193 184//193
f 187//194 204//194 207//194 186//194
f 184//195 206//195 205//195 185//195
f 185//196 205//196 204//196 187//196
f 183//197 210//197 209//197 182//197
f 180//198 208//198 211//198 181//198
f 181//199 211//199 210//199 183//199
f 182//200 209//200 208//200 180//200
