# Blender v2.79 (sub 0) OBJ File: 'test.blend'
# www.blender.org
mtllib test.mtl
v 0.386891 -0.430475 -0.216092
v 1.000000 -1.043585 0.379814
v -1.000000 -1.043585 0.379814
v -0.386890 -0.430475 -0.216092
v 0.386891 0.343306 -0.216091
v 0.999999 0.956415 0.379815
v -1.000000 0.956415 0.379814
v -0.386890 0.343306 -0.216092
v 1.303193 0.511909 0.379815
v -1.303194 0.511909 0.379813
v -1.303194 -0.337570 0.379814
v 1.303193 -0.337570 0.379814
vn 0.0000 -0.6970 -0.7171
vn 0.0000 0.6970 -0.7171
vn 0.5452 0.0000 -0.8383
vn -0.0000 -0.0000 1.0000
vn -0.5466 -0.2347 -0.8038
vn 0.0000 0.0000 -1.0000
vn -0.4735 0.3230 -0.8195
vn -0.5452 -0.0000 -0.8383
vn 0.4735 0.3230 -0.8195
vn 0.5466 -0.2347 -0.8038
usemtl Material
s off
f 1//1 2//1 3//1 4//1
f 5//2 8//2 7//2 6//2
f 1//3 5//3 9//3 12//3
f 2//4 12//4 11//4 3//4
f 3//5 11//5 4//5
f 5//6 1//6 4//6 8//6
f 10//4 9//4 6//4 7//4
f 11//4 12//4 9//4 10//4
f 8//7 10//7 7//7
f 4//8 11//8 10//8 8//8
f 9//9 5//9 6//9
f 12//10 2//10 1//10
