# Blender v2.79 (sub 0) OBJ File: 'table_oddiment.blend'
# www.blender.org
mtllib test3.mtl
v -2.220855 -1.027224 1.839025
v -2.220855 0.419466 1.839025
v -2.220855 -1.027224 1.667999
v -2.220855 0.419466 1.667999
v -2.049829 -1.027224 1.839025
v -2.049829 0.419466 1.839025
v -2.049829 -1.027224 1.667999
v -2.049829 0.419466 1.667999
v -1.326667 -1.027224 1.839025
v -1.326667 0.419466 1.839025
v -1.326667 -1.027224 1.667999
v -1.326667 0.419466 1.667999
v -1.155641 -1.027224 1.839025
v -1.155641 0.419466 1.839025
v -1.155641 -1.027224 1.667999
v -1.155641 0.419466 1.667999
v -1.326667 -1.027224 2.725068
v -1.326667 0.419466 2.725068
v -1.326667 -1.027224 2.554042
v -1.326667 0.419466 2.554042
v -1.155641 -1.027224 2.725068
v -1.155641 0.419466 2.725068
v -1.155641 -1.027224 2.554042
v -1.155641 0.419466 2.554042
v -2.220855 -1.027224 2.725067
v -2.220855 0.419466 2.725067
v -2.220855 -1.027224 2.554042
v -2.220855 0.419466 2.554042
v -2.049829 -1.027224 2.725067
v -2.049829 0.419466 2.725067
v -2.049829 -1.027224 2.554042
v -2.049829 0.419466 2.554042
v -2.257991 0.220565 2.757422
v -2.257991 0.480533 2.757422
v -2.257991 0.220565 1.625993
v -2.257991 0.480533 1.625993
v -1.126562 0.220565 2.757422
v -1.126562 0.480533 2.757422
v -1.126562 0.220565 1.625994
v -1.126562 0.480533 1.625994
vn -1.0000 0.0000 0.0000
vn 0.0000 0.0000 -1.0000
vn 1.0000 0.0000 0.0000
vn 0.0000 0.0000 1.0000
vn 0.0000 -1.0000 0.0000
vn 0.0000 1.0000 0.0000
usemtl Material.001
s off
f 1//1 2//1 4//1 3//1
f 3//2 4//2 8//2 7//2
f 7//3 8//3 6//3 5//3
f 5//4 6//4 2//4 1//4
f 3//5 7//5 5//5 1//5
f 8//6 4//6 2//6 6//6
f 9//1 10//1 12//1 11//1
f 11//2 12//2 16//2 15//2
f 15//3 16//3 14//3 13//3
f 13//4 14//4 10//4 9//4
f 11//5 15//5 13//5 9//5
f 16//6 12//6 10//6 14//6
f 17//1 18//1 20//1 19//1
f 19//2 20//2 24//2 23//2
f 23//3 24//3 22//3 21//3
f 21//4 22//4 18//4 17//4
f 19//5 23//5 21//5 17//5
f 24//6 20//6 18//6 22//6
f 25//1 26//1 28//1 27//1
f 27//2 28//2 32//2 31//2
f 31//3 32//3 30//3 29//3
f 29//4 30//4 26//4 25//4
f 27//5 31//5 29//5 25//5
f 32//6 28//6 26//6 30//6
f 33//1 34//1 36//1 35//1
f 35//2 36//2 40//2 39//2
f 39//3 40//3 38//3 37//3
f 37//4 38//4 34//4 33//4
f 35//5 39//5 37//5 33//5
f 40//6 36//6 34//6 38//6
v 3.755851 -1.000000 -1.000000
v 3.755851 -1.000000 1.000000
v -3.755851 -1.000000 1.000000
v -3.755849 -1.000000 -1.000000
v 3.755853 1.000000 -0.999999
v 3.755848 0.069371 1.000001
v -3.755852 0.069371 1.000000
v -3.755851 1.000000 -1.000000
v 3.755851 -0.760024 -1.000000
v 3.755852 -0.580538 -1.095697
v 3.755850 -0.760024 1.000000
v 3.755849 -0.580538 0.904303
v -3.755852 -0.760024 1.000000
v -3.755852 -0.580538 0.904303
v -3.755850 -0.760024 -1.000000
v -3.755850 -0.580538 -1.095697
v 3.755851 -1.000000 -0.647058
v 3.755851 -1.000000 -0.364999
v -3.755851 -1.000000 -0.364999
v -3.755850 -1.000000 -0.647059
v 3.755851 1.000000 -0.647058
v 3.755850 0.009725 -0.364998
v -3.755852 0.009725 -0.364999
v -3.755851 1.000000 -0.647058
v -3.755851 -0.760024 -0.364999
v -3.755851 -0.760024 -0.647058
v -3.755851 -0.580538 -0.460696
v -3.755851 -0.580538 -0.742756
v 3.755851 -0.760024 -0.647058
v 3.755850 -0.760024 -0.364998
v 3.755851 -0.580538 -0.742755
v 3.755850 -0.580538 -0.460696
vn 0.0000 -1.0000 0.0000
vn 0.0000 0.9990 -0.0437
vn 1.0000 0.0000 0.0000
vn -0.0000 -0.1457 0.9893
vn -1.0000 -0.0000 -0.0000
vn 0.0000 0.0000 -1.0000
vn 0.0000 0.0604 -0.9982
vn 0.0000 -0.4705 -0.8824
vn -0.0000 -0.0000 1.0000
vn -0.0000 0.4705 0.8824
vn 0.0000 1.0000 0.0000
vn -0.0000 0.2739 0.9617
usemtl Material
s off
f 58//7 42//7 43//7 59//7
f 62//8 63//8 47//8 46//8
f 72//9 62//9 46//9 52//9
f 52//10 46//10 47//10 54//10
f 68//11 64//11 48//11 56//11
f 49//12 41//12 44//12 55//12
f 45//13 50//13 56//13 48//13
f 50//14 49//14 55//14 56//14
f 60//11 66//11 55//11 44//11
f 66//11 68//11 56//11 55//11
f 42//15 51//15 53//15 43//15
f 51//16 52//16 54//16 53//16
f 58//9 70//9 51//9 42//9
f 70//9 72//9 52//9 51//9
f 49//9 50//9 71//9 69//9
f 69//9 71//9 72//9 70//9
f 41//9 49//9 69//9 57//9
f 57//9 69//9 70//9 58//9
f 53//11 54//11 67//11 65//11
f 65//11 67//11 68//11 66//11
f 43//11 53//11 65//11 59//11
f 59//11 65//11 66//11 60//11
f 54//11 47//11 63//11 67//11
f 67//11 63//11 64//11 68//11
f 50//9 45//9 61//9 71//9
f 71//9 61//9 62//9 72//9
f 45//17 48//17 64//17 61//17
f 61//18 64//18 63//18 62//18
f 41//7 57//7 60//7 44//7
f 57//7 58//7 59//7 60//7
