# Blender v2.79 (sub 0) OBJ File: 'head.blend'
# www.blender.org
mtllib test.mtl
v 0.808859 -1.025775 -0.932135
v 1.000000 -1.164028 1.000000
v -1.000000 -1.164028 1.000000
v -0.808858 -1.025775 -0.932135
v 0.851224 1.026962 -0.851223
v 0.851223 1.026962 0.851224
v -0.851224 1.026962 0.851223
v -0.851223 1.026962 -0.851223
v 0.990645 -1.207561 -0.123276
v 0.000000 -1.049808 -1.113922
v 1.006618 -0.000000 -1.006618
v -0.009883 -1.812869 1.342324
v 1.006618 -0.000000 1.006619
v -0.990645 -1.207562 -0.123277
v -1.006619 -0.000000 1.006618
v -1.006618 0.000000 -1.006618
v 1.042531 1.218270 0.000001
v 0.000000 1.218270 -1.042531
v -0.000001 1.218270 1.042531
v -1.042532 1.218270 -0.000000
v 0.000000 -0.000000 -1.333856
v -1.423573 -0.000000 -0.000000
v -0.000000 -0.000000 1.423573
v 1.423573 -0.000000 0.000000
v -0.000000 1.650101 0.000000
v -0.000000 -1.732051 -0.000000
v 0.000000 -3.167765 -1.661500
v -1.753897 -3.167765 -1.436755
v -2.148077 -3.167765 -0.436755
v 1.753898 -3.167765 -1.436755
v 2.148077 -3.167765 -0.436755
v 0.000000 -3.167765 -0.436755
v -0.856959 -2.083883 -1.218378
v -1.049556 -2.196255 -0.218378
v 0.000000 -2.449908 -0.218378
v 1.049556 -2.196255 -0.218378
v 0.000000 -2.041789 -1.374015
v 0.856959 -2.083883 -1.218377
vn -0.5066 -0.8620 -0.0170
vn -0.3251 0.8881 0.3251
vn 0.9147 0.2410 0.3243
vn -0.3243 0.2410 0.9147
vn -0.9147 0.2410 -0.3243
vn -0.2684 -0.1603 -0.9499
vn -0.2827 0.2060 -0.9368
vn 0.2827 0.2060 -0.9368
vn 0.2684 -0.1603 -0.9499
vn -0.9117 -0.2503 -0.3257
vn -0.9638 -0.1889 0.1883
vn -0.9147 0.2410 0.3243
vn -0.3630 -0.0271 0.9314
vn 0.3605 -0.0295 0.9323
vn 0.3243 0.2410 0.9147
vn 0.9638 -0.1889 0.1883
vn 0.9117 -0.2503 -0.3257
vn 0.9147 0.2410 -0.3243
vn 0.3251 0.8881 0.3251
vn 0.3251 0.8881 -0.3251
vn -0.3251 0.8881 -0.3251
vn 0.0189 -0.2387 0.9709
vn -0.6904 0.7049 -0.1629
vn 0.5036 -0.8638 -0.0130
vn 0.0000 -1.0000 0.0000
vn -0.1429 0.2756 -0.9506
vn 0.6904 0.7049 -0.1629
vn 0.1429 0.2756 -0.9506
vn -0.0189 -0.2387 0.9709
vn -0.1258 -0.1750 0.9765
vn 0.1945 0.2568 -0.9467
vn 0.9783 0.0863 -0.1885
vn -0.1945 0.2568 -0.9467
vn -0.9783 0.0863 -0.1885
vn 0.1258 -0.1750 0.9765
usemtl Material
s off
f 26//1 12//1 3//1 14//1
f 25//2 20//2 7//2 19//2
f 24//3 17//3 6//3 13//3
f 23//4 19//4 7//4 15//4
f 22//5 20//5 8//5 16//5
f 21//6 10//6 4//6 16//6
f 18//7 21//7 16//7 8//7
f 5//8 11//8 21//8 18//8
f 11//9 1//9 10//9 21//9
f 14//10 22//10 16//10 4//10
f 3//11 15//11 22//11 14//11
f 15//12 7//12 20//12 22//12
f 12//13 23//13 15//13 3//13
f 2//14 13//14 23//14 12//14
f 13//15 6//15 19//15 23//15
f 9//16 24//16 13//16 2//16
f 1//17 11//17 24//17 9//17
f 11//18 5//18 17//18 24//18
f 17//19 25//19 19//19 6//19
f 5//20 18//20 25//20 17//20
f 18//21 8//21 20//21 25//21
f 36//22 35//22 32//22 31//22
f 34//23 33//23 28//23 29//23
f 9//24 2//24 12//24 26//24
f 27//25 32//25 29//25 28//25
f 30//25 31//25 32//25 27//25
f 33//26 37//26 27//26 28//26
f 38//27 36//27 31//27 30//27
f 37//28 38//28 30//28 27//28
f 35//29 34//29 29//29 32//29
f 26//30 14//30 34//30 35//30
f 10//31 1//31 38//31 37//31
f 1//32 9//32 36//32 38//32
f 4//33 10//33 37//33 33//33
f 14//34 4//34 33//34 34//34
f 9//35 26//35 35//35 36//35
